# xmcd CD database file
#
# Track frame offsets:
#	150
#	19806
#	44268
#	70971
#	94704
#	112929
#	133692
#	152862
#	174030
#	206943
#	230811
#	247739
#	263021
#	279005
#	295853
#	316319
#
# Disc length: 4420 seconds
#
# Revision: 0
# Processed by: cddbd v1.5.2PL0 Copyright (c) Steve Scherf et al.
# Submitted via: CDex 1.51
#
DISCID=d8114210
DTITLE=Kenny G - Golden collection - 3
DYEAR=2006
DGENRE=Jazz
TTITLE0=The Joy of Life
TTITLE1=Alone
TTITLE2=Remember
TTITLE3=Home
TTITLE4=Wishes
TTITLE5=Homeland
TTITLE6=One More Time
TTITLE7=Brazil
TTITLE8=Don't Make Me Wait for Love
TTITLE9=Spanish Nights
TTITLE10=Peace
TTITLE11=Spring Breeze
TTITLE12=Greensleeves
TTITLE13=Love Story
TTITLE14=Sentimental
TTITLE15=In The Rain
EXTD=YEAR: 2006
EXTT0=
EXTT1=
EXTT2=
EXTT3=
EXTT4=
EXTT5=
EXTT6=
EXTT7=
EXTT8=
EXTT9=
EXTT10=
EXTT11=
EXTT12=
EXTT13=
EXTT14=
EXTT15=
PLAYORDER=
